<svg>
    <symbol id="user2_User" viewBox="0 0 1024 1024">
        <path d="M772.016477 696.022177c-39.228443-39.229466-85.763292-68.49807-136.530536-86.546122 26.774807-13.283538 51.500954-30.976502 73.254398-52.729945 52.55189-52.550867 81.494059-122.422214 81.494059-196.74085s-28.941146-144.189983-81.494059-196.741873c-52.550867-52.550867-122.422214-81.493036-196.74085-81.493036s-144.189983 28.942169-196.741873 81.493036c-52.55189 52.550867-81.494059 122.422214-81.494059 196.741873s28.941146 144.189983 81.494059 196.74085c21.753443 21.753443 46.480614 39.446407 73.256444 52.729945-50.76929 18.049075-97.303116 47.316655-136.532583 86.546122-66.188468 66.187445-104.009865 153.166425-107.422591 246.208495l48.730864 0c3.387144-80.028685 36.140105-154.783249 93.129051-211.770148 55.771211-55.771211 128.557958-88.326675 206.650547-92.867084 6.27389 0.418532 12.582573 0.645706 18.929118 0.645706 6.345522 0 12.656251-0.227174 18.929118-0.645706 78.091566 4.54041 150.880359 37.095873 206.650547 92.867084 56.987922 56.986899 89.741907 131.741463 93.129051 211.770148l48.730864 0C876.027365 849.188602 838.204945 762.209622 772.016477 696.022177zM282.466792 360.004237c0-126.564557 102.96814-229.53372 229.53372-229.53372 126.564557 0 229.53372 102.969163 229.53372 229.53372 0 120.304993-93.040023 219.280192-210.942293 228.77545-6.170536-0.304945-12.369725-0.460488-18.591427-0.460488-6.222725 0-12.420891 0.155543-18.59245 0.460488C375.505791 579.284429 282.466792 480.30923 282.466792 360.004237z"/>
    </symbol>
    <symbol id="user2_Order" viewBox="0 0 1024 1024">
        <path d="M315.311 142.57h560.033v89.729H315.311V142.57z m0 163.783h560.033v89.729H315.311v-89.729z m0 327.565h560.033v89.729H315.311v-89.729z m0-163.783h560.033v89.729H315.311v-89.729z m0 327.565h560.033v89.729H315.311V797.7z"
              fill="#060101"/>
        <path d="M197.694 222.586H184.84v-59.182c-4.806 5.402-10.358 9.37-16.654 11.903v-14.25c3.577-1.449 7.284-4.041 11.121-7.775 3.837-3.733 6.501-8.035 7.992-12.902h10.395v82.206zM208.257 374.21v14.586h-45.155a43.455 43.455 0 0 1 4.443-15.719c2.477-4.97 7.293-11.494 14.446-19.572 5.663-6.44 9.146-10.795 10.451-13.067 1.937-3.313 2.906-6.645 2.906-9.995 0-3.573-0.801-6.272-2.403-8.097-1.603-1.824-3.708-2.736-6.315-2.736-5.701 0-8.774 4.266-9.221 12.797l-12.798-1.564c0.783-8.345 3.102-14.475 6.958-18.386 3.856-3.912 8.988-5.868 15.396-5.868 7.042 0 12.351 2.29 15.927 6.869s5.365 9.828 5.365 15.747a34.81 34.81 0 0 1-1.369 9.744c-0.914 3.145-2.319 6.31-4.22 9.493-1.9 3.183-5.067 7.249-9.5 12.2-4.136 4.653-6.753 7.725-7.852 9.213-1.1 1.49-1.984 2.941-2.655 4.355h25.596zM164.275 533.324l12.462-1.844c0.336 3.857 1.402 6.805 3.195 8.845s3.904 3.06 6.333 3.06c2.653 0 4.894-1.211 6.725-3.633s2.747-5.775 2.747-10.06c0-3.986-0.879-7.116-2.637-9.389s-3.89-3.409-6.395-3.409c-1.645 0-3.609 0.391-5.89 1.174l1.397-12.798c3.333 0.075 5.974-0.816 7.921-2.674 1.91-1.857 2.865-4.477 2.865-7.858 0-2.823-0.692-5.033-2.076-6.631-1.383-1.597-3.159-2.396-5.327-2.396-2.169 0-4.047 0.922-5.637 2.766s-2.533 4.574-2.832 8.187l-11.904-2.458c1.231-7.489 3.637-12.928 7.219-16.319 3.582-3.39 8.097-5.085 13.543-5.085 6.118 0 10.977 2.177 14.577 6.529 3.601 4.353 5.401 9.17 5.401 14.454 0 3.571-0.81 6.79-2.431 9.654s-4.051 5.375-7.293 7.533c3.763 1.006 6.827 3.223 9.193 6.65 2.365 3.428 3.549 7.713 3.549 12.854 0 7.488-2.229 13.684-6.687 18.582-4.458 4.899-9.764 7.349-15.918 7.349-5.895 0-10.884-2.063-14.969-6.188-4.082-4.127-6.46-9.758-7.131-16.895zM189.982 721.219v-16.486h-27.496v-13.747l29.116-51.974h10.842v51.918h8.327v13.803h-8.327v16.486h-12.462z m0-30.289v-27.969l-15.424 27.969h15.424zM164.946 866.36l12.854-1.677c0.335 3.577 1.434 6.391 3.297 8.439 1.862 2.049 3.912 3.073 6.147 3.073 2.645 0 4.917-1.311 6.818-3.933 1.9-2.621 2.85-6.648 2.85-12.078 0-5.131-0.943-8.924-2.828-11.379-1.885-2.455-4.283-3.683-7.194-3.683-3.695 0-7.018 1.993-9.966 5.979l-10.47-1.844 6.595-42.641h34.034v14.698h-24.207l-2.096 13.918c2.91-1.753 5.857-2.63 8.841-2.63 5.297 0 9.792 2.088 13.485 6.26 4.663 5.328 6.995 12.351 6.995 21.068 0 7.191-1.984 13.804-5.952 19.84-3.968 6.035-9.64 9.053-17.017 9.053-5.961 0-10.945-1.946-14.949-5.84-4.005-3.889-6.418-9.432-7.237-16.623z"/>
    </symbol>
    <symbol id="user2_Address" viewBox="0 0 1024 1024">
        <path d="M305.6 761.376c3.024-3.248 8.4-7.008 15.92-10.8 14.528-7.312 35.2-13.904 60.192-19.04 4.496-0.944 14.176-2.96 11.264-17.936l-2.8-16.032c-3.744-17.6-12.8-14.16-17.632-13.184C300.96 698.88 256 724 256 762.624c0 58.048 111.904 90.8 252.16 90.8 140.288 0 252.192-32.752 252.192-90.784 0-38.496-44.64-63.568-115.808-78.112-5.088-1.04-15.68-2.944-18.4 12.64-1.12 6.304-2 11.472-2.704 15.472-4.336 18.288 8.48 18.288 13.84 19.44 23.792 5.056 43.52 11.424 57.52 18.496 7.52 3.792 12.928 7.536 15.952 10.8 1.44 1.552 1.6 1.856 1.6 1.264 0 3.04-16.656 14.56-49.584 24.192-40.16 11.744-95.408 18.592-154.592 18.592-59.2 0-114.448-6.848-154.608-18.592-32.032-9.376-48.656-20.544-49.536-23.936 0.096 0.128 0.448-0.32 1.552-1.52z m73.36-122.512c53.712 79.2 106.72 141.664 129.216 141.664 22.496 0 75.488-62.464 129.216-141.664 61.952-91.36 100.688-173.376 100.688-230.8C738.08 279.952 635.2 176 508.16 176c-127.024 0-229.904 103.952-229.904 232.064 0 57.424 38.752 139.456 100.704 230.8z m150.288 63.84a445.936 445.936 0 0 1-21.072 23.376c-5.824-5.92-13.04-13.904-21.072-23.36-21.248-25.056-45.792-57.44-68.432-90.8-56.72-83.648-92.416-159.216-92.416-203.856 0-101.712 81.504-184.064 181.92-184.064 100.416 0 181.92 82.352 181.92 184.064 0 44.64-35.696 120.208-92.432 203.84-22.624 33.376-47.168 65.76-68.416 90.8z m-21.072-200.448a101.92 101.92 0 1 0 0-203.824 101.92 101.92 0 0 0 0 203.84z m0-48a53.92 53.92 0 1 1 0-107.824 53.92 53.92 0 0 1 0 107.84z"/>
    </symbol>
</svg>